<svg width="80" height="38" viewBox="0 0 80 38" fill="none" xmlns="http://www.w3.org/2000/svg">
<mask id="mask0" mask-type="alpha" maskUnits="userSpaceOnUse" x="0" y="0" width="80" height="38">
<path fill-rule="evenodd" clip-rule="evenodd" d="M0 0H80V38H0V0Z" fill="white"/>
</mask>
<g mask="url(#mask0)">
<path fill-rule="evenodd" clip-rule="evenodd" d="M47.3284 12.9458C47.8351 10.866 49.5669 9.50237 51.8821 9.50237C54.1124 9.50237 55.773 10.8694 56.228 12.9458H47.3284ZM51.8823 7.12749C49.8811 7.12749 48.0668 7.86669 46.7739 9.20885C45.5164 10.5148 44.8235 12.3056 44.8235 14.2521C44.8235 16.2093 45.4984 17.9981 46.7241 19.2887C48.0207 20.6545 49.8043 21.3764 51.8822 21.3764C54.1162 21.3764 56.433 20.2791 57.647 18.6453L55.7646 17.2204C54.9854 18.2693 53.3888 19.0017 51.8822 19.0017C49.437 19.0017 47.6888 17.5613 47.2719 15.3206H58.7056V14.1332C58.7056 12.2429 58.0435 10.4933 56.8409 9.20693C55.5871 7.86592 53.8262 7.12749 51.8823 7.12749ZM7.05873 19.0015C4.46409 19.0015 2.35278 16.8709 2.35278 14.2519C2.35278 11.6329 4.46409 9.50225 7.05873 9.50225C9.6536 9.50225 11.7646 11.6329 11.7646 14.2519C11.7646 16.8709 9.6536 19.0015 7.05873 19.0015ZM11.7646 30.8757C11.7646 33.4945 9.6536 35.6254 7.05873 35.6254C4.46409 35.6254 2.35278 33.4944 2.35278 30.8757C2.35278 28.2568 4.46409 26.1261 7.05873 26.1261C9.6536 26.1261 11.7646 28.2568 11.7646 30.8757ZM14.5458 5.01601L11.1451 8.4481C9.99106 7.61788 8.58107 7.12751 7.05877 7.12751C3.1667 7.12728 0 10.3233 0 14.2519C0 17.7756 2.54829 20.7083 5.88229 21.2754V23.8519C2.54829 24.4192 0 27.3519 0 30.8757C0 34.8039 3.16662 38 7.05877 38C10.9511 38 14.1175 34.804 14.1175 30.8757C14.1175 27.3519 11.5693 24.4192 8.23518 23.8519V21.2754C11.5692 20.7083 14.1175 17.7757 14.1175 14.2519C14.1175 12.7154 13.6317 11.2923 12.8091 10.1276L16.2096 6.69526L14.5458 5.01601ZM80.0001 7.48367V21.02H77.6472V9.85835H72.9413V21.02H70.5882V9.85835H65.8824V21.02H63.5295V7.48367H80.0001ZM37.6472 21.0201H40.0001V0H37.6472V21.0201ZM25.8825 19.0016C23.2876 19.0016 21.1765 16.871 21.1765 14.252C21.1765 11.6331 23.2875 9.50237 25.8825 9.50237C28.4771 9.50237 30.5883 11.633 30.5883 14.252C30.5883 16.8709 28.4771 19.0016 25.8825 19.0016ZM25.8825 7.12736C21.9902 7.12736 18.8237 10.3235 18.8237 14.2519C18.8237 18.1804 21.9901 21.3763 25.8825 21.3763C29.7748 21.3763 32.9413 18.1805 32.9413 14.2519C32.9412 10.3235 29.7748 7.12736 25.8825 7.12736Z" fill="#181EA9"/>
</g>
</svg>
