<svg width="421" height="256" viewBox="0 0 421 256" fill="none" xmlns="http://www.w3.org/2000/svg">
<path d="M81.2828 207H80.2828V208H81.2828V207ZM81.2828 181.2H82.2828V180.2H81.2828V181.2ZM4.88281 181.2H3.88281V182.2H4.88281V181.2ZM4.88281 151.4L4.1371 150.734L3.88281 151.018V151.4H4.88281ZM78.6828 68.8V67.8H78.2353L77.9371 68.1337L78.6828 68.8ZM117.683 68.8H118.683V67.8H117.683V68.8ZM117.683 152.6H116.683V153.6H117.683V152.6ZM137.683 152.6L138.676 152.718L138.809 151.6H137.683V152.6ZM134.283 181.2V182.2H135.171L135.276 181.318L134.283 181.2ZM117.683 181.2V180.2H116.683V181.2H117.683ZM117.683 207V208H118.683V207H117.683ZM81.2828 106.6H82.2828V103.975L80.5363 105.935L81.2828 106.6ZM40.2828 152.6L39.5363 151.935L38.0519 153.6H40.2828V152.6ZM81.2828 152.6V153.6H82.2828V152.6H81.2828ZM82.2828 207V181.2H80.2828V207H82.2828ZM81.2828 180.2H4.88281V182.2H81.2828V180.2ZM5.88281 181.2V151.4H3.88281V181.2H5.88281ZM5.62853 152.066L79.4285 69.4663L77.9371 68.1337L4.1371 150.734L5.62853 152.066ZM78.6828 69.8H117.683V67.8H78.6828V69.8ZM116.683 68.8V152.6H118.683V68.8H116.683ZM117.683 153.6H137.683V151.6H117.683V153.6ZM136.69 152.482L133.29 181.082L135.276 181.318L138.676 152.718L136.69 152.482ZM134.283 180.2H117.683V182.2H134.283V180.2ZM116.683 181.2V207H118.683V181.2H116.683ZM117.683 206H81.2828V208H117.683V206ZM80.5363 105.935L39.5363 151.935L41.0293 153.265L82.0293 107.265L80.5363 105.935ZM40.2828 153.6H81.2828V151.6H40.2828V153.6ZM82.2828 152.6V106.6H80.2828V152.6H82.2828ZM163.122 192.8L162.358 193.445L162.366 193.454L163.122 192.8ZM258.522 83L257.758 83.6452L257.766 83.6543L258.522 83ZM228.322 169.6L227.439 169.13L228.322 169.6ZM231.122 113.4L230.15 113.637L230.152 113.643L231.122 113.4ZM224.122 100.6L223.482 101.368L223.491 101.376L223.501 101.384L224.122 100.6ZM193.522 106L194.405 106.47L193.522 106ZM190.722 162.4L189.75 162.637L189.752 162.643L190.722 162.4ZM197.722 175.2L197.082 175.968L197.091 175.976L197.101 175.984L197.722 175.2ZM210.322 209.6C189.305 209.6 173.894 203.723 163.878 192.146L162.366 193.454C172.883 205.61 188.939 211.6 210.322 211.6V209.6ZM163.886 192.155C153.97 180.413 148.922 162.423 148.922 138H146.922C146.922 162.644 152.007 181.187 162.358 193.445L163.886 192.155ZM148.922 138C148.922 113.79 154.198 95.8185 164.576 83.9069C174.931 72.0216 190.515 66 211.522 66V64C190.129 64 173.913 70.145 163.068 82.5931C152.246 95.0148 146.922 113.544 146.922 138H148.922ZM211.522 66C232.536 66 247.875 71.9419 257.758 83.6452L259.286 82.3548C248.902 70.0581 232.907 64 211.522 64V66ZM257.766 83.6543C267.807 95.261 272.922 113.178 272.922 137.6H274.922C274.922 112.955 269.77 94.4723 259.278 82.3457L257.766 83.6543ZM272.922 137.6C272.922 161.81 267.646 179.781 257.268 191.693C246.913 203.578 231.329 209.6 210.322 209.6V211.6C231.715 211.6 247.931 205.455 258.776 193.007C269.598 180.585 274.922 162.056 274.922 137.6H272.922ZM210.722 180C219.41 180 225.663 176.729 229.205 170.07L227.439 169.13C224.315 175.004 218.834 178 210.722 178V180ZM229.205 170.07C232.662 163.57 234.322 152.754 234.322 137.8H232.322C232.322 152.713 230.649 163.096 227.439 169.13L229.205 170.07ZM234.322 137.8C234.322 127.368 233.588 119.14 232.092 113.157L230.152 113.643C231.589 119.393 232.322 127.432 232.322 137.8H234.322ZM232.093 113.163C230.6 107.052 228.186 102.542 224.743 99.816L223.501 101.384C226.457 103.724 228.711 107.748 230.15 113.637L232.093 113.163ZM224.762 99.8318C221.333 96.974 216.749 95.6 211.122 95.6V97.6C216.429 97.6 220.511 98.8927 223.482 101.368L224.762 99.8318ZM211.122 95.6C202.434 95.6 196.181 98.871 192.639 105.53L194.405 106.47C197.529 100.596 203.01 97.6 211.122 97.6V95.6ZM192.639 105.53C189.182 112.03 187.522 122.846 187.522 137.8H189.522C189.522 122.887 191.195 112.504 194.405 106.47L192.639 105.53ZM187.522 137.8C187.522 148.234 188.256 156.525 189.75 162.637L191.693 162.163C190.254 156.275 189.522 148.166 189.522 137.8H187.522ZM189.752 162.643C191.248 168.626 193.66 173.117 197.082 175.968L198.362 174.432C195.384 171.95 193.13 167.908 191.692 162.157L189.752 162.643ZM197.101 175.984C200.53 178.698 205.106 180 210.722 180V178C205.404 178 201.314 176.768 198.343 174.416L197.101 175.984ZM361.361 207H360.361V208H361.361V207ZM361.361 181.2H362.361V180.2H361.361V181.2ZM284.961 181.2H283.961V182.2H284.961V181.2ZM284.961 151.4L284.215 150.734L283.961 151.018V151.4H284.961ZM358.761 68.8V67.8H358.313L358.015 68.1337L358.761 68.8ZM397.761 68.8H398.761V67.8H397.761V68.8ZM397.761 152.6H396.761V153.6H397.761V152.6ZM417.761 152.6L418.754 152.718L418.887 151.6H417.761V152.6ZM414.361 181.2V182.2H415.249L415.354 181.318L414.361 181.2ZM397.761 181.2V180.2H396.761V181.2H397.761ZM397.761 207V208H398.761V207H397.761ZM361.361 106.6H362.361V103.975L360.614 105.935L361.361 106.6ZM320.361 152.6L319.614 151.935L318.13 153.6H320.361V152.6ZM361.361 152.6V153.6H362.361V152.6H361.361ZM362.361 207V181.2H360.361V207H362.361ZM361.361 180.2H284.961V182.2H361.361V180.2ZM285.961 181.2V151.4H283.961V181.2H285.961ZM285.707 152.066L359.507 69.4663L358.015 68.1337L284.215 150.734L285.707 152.066ZM358.761 69.8H397.761V67.8H358.761V69.8ZM396.761 68.8V152.6H398.761V68.8H396.761ZM397.761 153.6H417.761V151.6H397.761V153.6ZM416.768 152.482L413.368 181.082L415.354 181.318L418.754 152.718L416.768 152.482ZM414.361 180.2H397.761V182.2H414.361V180.2ZM396.761 181.2V207H398.761V181.2H396.761ZM397.761 206H361.361V208H397.761V206ZM360.614 105.935L319.614 151.935L321.107 153.265L362.107 107.265L360.614 105.935ZM320.361 153.6H361.361V151.6H320.361V153.6ZM362.361 152.6V106.6H360.361V152.6H362.361Z" fill="#181EA9"/>
<path d="M172.897 138.432C172.897 140.256 172.489 141.848 171.673 143.208C170.873 144.552 169.697 145.592 168.145 146.328C166.609 147.064 164.769 147.432 162.625 147.432C160.561 147.432 158.769 147.08 157.249 146.376C155.729 145.672 154.553 144.648 153.721 143.304C152.889 141.944 152.473 140.32 152.473 138.432C152.473 136.608 152.873 135.024 153.673 133.68C154.489 132.32 155.665 131.272 157.201 130.536C158.753 129.8 160.601 129.432 162.745 129.432C164.809 129.432 166.601 129.784 168.121 130.488C169.641 131.192 170.817 132.224 171.649 133.584C172.481 134.928 172.897 136.544 172.897 138.432ZM167.665 138.432C167.665 136.864 167.233 135.648 166.369 134.784C165.505 133.92 164.281 133.488 162.697 133.488C161.113 133.488 159.881 133.92 159.001 134.784C158.137 135.648 157.705 136.864 157.705 138.432C157.705 140 158.137 141.216 159.001 142.08C159.865 142.944 161.089 143.376 162.673 143.376C164.257 143.376 165.481 142.944 166.345 142.08C167.225 141.216 167.665 140 167.665 138.432ZM190.758 140.664C190.758 142.744 190.054 144.384 188.646 145.584C187.238 146.784 185.31 147.384 182.862 147.384C180.414 147.384 178.518 146.808 177.174 145.656C175.83 144.488 175.158 142.856 175.158 140.76C175.158 138.664 175.862 137.016 177.27 135.816C178.678 134.616 180.606 134.016 183.054 134.016C185.502 134.016 187.398 134.6 188.742 135.768C190.086 136.92 190.758 138.552 190.758 140.664ZM185.958 140.688C185.958 139.664 185.702 138.88 185.19 138.336C184.678 137.792 183.934 137.52 182.958 137.52C181.998 137.52 181.254 137.792 180.726 138.336C180.214 138.88 179.958 139.672 179.958 140.712C179.958 141.736 180.214 142.52 180.726 143.064C181.238 143.608 181.982 143.88 182.958 143.88C183.918 143.88 184.654 143.608 185.166 143.064C185.694 142.52 185.958 141.728 185.958 140.688ZM208.476 140.664C208.476 142.744 207.772 144.384 206.364 145.584C204.956 146.784 203.028 147.384 200.58 147.384C198.132 147.384 196.236 146.808 194.892 145.656C193.548 144.488 192.876 142.856 192.876 140.76C192.876 138.664 193.58 137.016 194.988 135.816C196.396 134.616 198.324 134.016 200.772 134.016C203.22 134.016 205.116 134.6 206.46 135.768C207.804 136.92 208.476 138.552 208.476 140.664ZM203.676 140.688C203.676 139.664 203.42 138.88 202.908 138.336C202.396 137.792 201.652 137.52 200.676 137.52C199.716 137.52 198.972 137.792 198.444 138.336C197.932 138.88 197.676 139.672 197.676 140.712C197.676 141.736 197.932 142.52 198.444 143.064C198.956 143.608 199.7 143.88 200.676 143.88C201.636 143.88 202.372 143.608 202.884 143.064C203.412 142.52 203.676 141.728 203.676 140.688ZM226.195 140.664C226.195 142.744 225.491 144.384 224.083 145.584C222.675 146.784 220.747 147.384 218.299 147.384C215.851 147.384 213.955 146.808 212.611 145.656C211.267 144.488 210.595 142.856 210.595 140.76C210.595 138.664 211.299 137.016 212.707 135.816C214.115 134.616 216.043 134.016 218.491 134.016C220.939 134.016 222.835 134.6 224.179 135.768C225.523 136.92 226.195 138.552 226.195 140.664ZM221.395 140.688C221.395 139.664 221.139 138.88 220.627 138.336C220.115 137.792 219.371 137.52 218.395 137.52C217.435 137.52 216.691 137.792 216.163 138.336C215.651 138.88 215.395 139.672 215.395 140.712C215.395 141.736 215.651 142.52 216.163 143.064C216.675 143.608 217.419 143.88 218.395 143.88C219.355 143.88 220.091 143.608 220.603 143.064C221.131 142.52 221.395 141.728 221.395 140.688ZM228.914 151.656V134.4H233.57V136.104C234.706 134.712 236.33 134.016 238.442 134.016C239.594 134.016 240.626 134.28 241.538 134.808C242.45 135.32 243.17 136.072 243.698 137.064C244.226 138.056 244.49 139.208 244.49 140.52C244.49 141.832 244.226 143.008 243.698 144.048C243.186 145.088 242.434 145.904 241.442 146.496C240.466 147.088 239.314 147.384 237.986 147.384C236.114 147.384 234.674 146.792 233.666 145.608V151.656H228.914ZM233.642 140.904C233.642 141.8 233.914 142.52 234.458 143.064C235.002 143.608 235.738 143.88 236.666 143.88C237.642 143.88 238.386 143.608 238.898 143.064C239.426 142.52 239.69 141.72 239.69 140.664C239.69 139.656 239.434 138.88 238.922 138.336C238.41 137.792 237.682 137.52 236.738 137.52C235.826 137.52 235.066 137.808 234.458 138.384C233.914 138.912 233.642 139.584 233.642 140.4V140.904ZM256.027 138.24C255.883 137.792 255.603 137.464 255.187 137.256C254.771 137.048 254.195 136.944 253.459 136.944C252.739 136.944 252.179 137.032 251.779 137.208C251.379 137.368 251.179 137.608 251.179 137.928C251.179 138.216 251.331 138.44 251.635 138.6C251.955 138.76 252.491 138.888 253.243 138.984L254.971 139.224C256.475 139.432 257.627 139.696 258.427 140.016C259.243 140.336 259.819 140.752 260.155 141.264C260.491 141.76 260.659 142.416 260.659 143.232C260.659 144.592 260.075 145.624 258.907 146.328C257.739 147.032 256.027 147.384 253.771 147.384C251.419 147.384 249.635 147.016 248.419 146.28C247.203 145.544 246.515 144.44 246.355 142.968H250.795C251.083 143.896 252.051 144.36 253.699 144.36C254.467 144.36 255.051 144.28 255.451 144.12C255.851 143.944 256.051 143.688 256.051 143.352C256.051 143.064 255.899 142.848 255.595 142.704C255.291 142.56 254.755 142.44 253.987 142.344L252.403 142.128C250.995 141.936 249.875 141.672 249.043 141.336C248.227 140.984 247.635 140.544 247.267 140.016C246.899 139.472 246.715 138.8 246.715 138C246.715 136.736 247.307 135.76 248.491 135.072C249.675 134.368 251.331 134.016 253.459 134.016C255.523 134.016 257.115 134.32 258.235 134.928C259.355 135.536 260.075 136.504 260.395 137.832L256.027 138.24ZM263.399 141.504L262.967 129.864H268.151L267.719 141.504H263.399ZM263.327 147V142.8H267.815V147H263.327Z" fill="#181EA9"/>
</svg>
