<svg width="14" height="14" viewBox="0 0 14 14" fill="none" xmlns="http://www.w3.org/2000/svg">
<path fill-rule="evenodd" clip-rule="evenodd" d="M11.5588 0.333252H5.40649V8.56311H13.6634V2.47449C13.6667 1.31843 12.7187 0.333252 11.5588 0.333252Z" fill="#1722A2"/>
<path fill-rule="evenodd" clip-rule="evenodd" d="M3.51698 0.333252H2.48486C1.32501 0.333252 0.333252 1.27485 0.333252 2.47783V3.50656H3.51698V0.333252Z" fill="#1722A2"/>
<path fill-rule="evenodd" clip-rule="evenodd" d="M0.333252 8.60666H3.51698V5.43335H0.333252V8.60666Z" fill="#1722A2"/>
<path fill-rule="evenodd" clip-rule="evenodd" d="M10.4829 13.6634H11.515C12.6749 13.6634 13.6666 12.7218 13.6666 11.5188V10.4934H10.4829V13.6634Z" fill="#1722A2"/>
<path fill-rule="evenodd" clip-rule="evenodd" d="M5.40649 13.6667H8.59023V10.4934H5.40649V13.6667Z" fill="#1722A2"/>
<path fill-rule="evenodd" clip-rule="evenodd" d="M0.333252 10.4934V11.5221C0.333252 12.6782 1.27794 13.6667 2.48486 13.6667H3.51698V10.4934H0.333252Z" fill="#1722A2"/>
</svg>
