<svg width="11" height="14" viewBox="0 0 11 14" fill="none" xmlns="http://www.w3.org/2000/svg">
<path d="M10.5 6.25H9.4375V2.75C9.4375 1.64531 8.54219 0.75 7.4375 0.75H3.5625C2.45781 0.75 1.5625 1.64531 1.5625 2.75V6.25H0.5C0.223437 6.25 0 6.47344 0 6.75V12.75C0 13.0266 0.223437 13.25 0.5 13.25H10.5C10.7766 13.25 11 13.0266 11 12.75V6.75C11 6.47344 10.7766 6.25 10.5 6.25ZM2.6875 2.75C2.6875 2.26719 3.07969 1.875 3.5625 1.875H7.4375C7.92031 1.875 8.3125 2.26719 8.3125 2.75V6.25H2.6875V2.75ZM9.875 12.125H1.125V7.375H9.875V12.125ZM5.0625 9.95312V10.7812C5.0625 10.85 5.11875 10.9062 5.1875 10.9062H5.8125C5.88125 10.9062 5.9375 10.85 5.9375 10.7812V9.95312C6.06648 9.86052 6.16275 9.72938 6.21245 9.57859C6.26216 9.42779 6.26273 9.26511 6.21409 9.11396C6.16545 8.96281 6.07011 8.831 5.94179 8.73749C5.81346 8.64398 5.65878 8.5936 5.5 8.5936C5.34122 8.5936 5.18654 8.64398 5.05821 8.73749C4.92989 8.831 4.83455 8.96281 4.78591 9.11396C4.73727 9.26511 4.73784 9.42779 4.78755 9.57859C4.83725 9.72938 4.93352 9.86052 5.0625 9.95312Z" fill="#181EA9"/>
</svg>
